<?xml version="1.0" encoding="utf-8"?>
<!-- Generator: Adobe Illustrator 17.0.0, SVG Export Plug-In . SVG Version: 6.00 Build 0)  -->
<!DOCTYPE svg PUBLIC "-//W3C//DTD SVG 1.1//EN" "http://www.w3.org/Graphics/SVG/1.1/DTD/svg11.dtd">
<svg version="1.1" id="ae7ad495-543d-4c4b-9483-8059c5566fe6"
	 xmlns="http://www.w3.org/2000/svg" xmlns:xlink="http://www.w3.org/1999/xlink" x="0px" y="0px" width="1009.54px"
	 height="839.64px" viewBox="0 0 1009.54 839.64" enable-background="new 0 0 1009.54 839.64" xml:space="preserve">
<path opacity="0.1" fill="#38D39F" enable-background="new    " d="M586.55,111.4c-64.72-2.25-126.36-23.14-185.22-46
	S284.17,17.21,221,5.1c-40.63-7.79-87.1-8.89-119.83,12.89c-31.51,21-41.69,57.15-47.16,90.73c-4.12,25.26-6.54,51.85,4.74,75.49
	c7.84,16.42,21.74,30.22,31.36,45.95c33.47,54.72,9.81,122.2-26.45,175.63c-17,25.07-36.75,49-49.88,75.66
	c-13.13,26.66-19.2,57.25-7.71,84.47c11.38,27,38.51,47.24,67.9,61.49c59.69,28.95,130,37.23,198.61,41.92
	c151.83,10.39,304.46,5.89,456.69,1.39c56.34-1.67,112.92-3.36,168.34-12.07c30.78-4.84,62.55-12.51,84.9-31.05
	c28.36-23.53,35.39-63.37,16.38-92.88c-31.88-49.49-120-61.78-142.31-114.89c-12.26-29.24,0.33-61.8,18.16-88.92
	c38.24-58.16,102.33-109.19,105.7-175.67c2.32-45.66-28.49-91.39-76.13-113c-49.93-22.64-119.18-19.8-156,17.69
	C710.36,98.53,643.7,113.38,586.55,111.4z"/>
<ellipse opacity="0.1" fill="#38D39F" enable-background="new    " cx="483.49" cy="780.99" rx="303.97" ry="41.12"/>
<path fill="#2587BA" d="M333.01,658.57c0,0,21-3.36,33.6,11.48c0,0-9.24,7.28-29.12-2.8L333.01,658.57z"/>
<path fill="#2587BA" d="M330.77,658.24c0,0-13.4,16.58-6.83,34.85c0,0,10.92-4.37,12.11-26.63L330.77,658.24z"/>
<path fill="#2587BA" d="M318.77,631.13c0,0,8.4-15.4,42,6.16c0,0-4.48,10.36-19.32,9.52S322.64,639.25,318.77,631.13z"/>
<path fill="#2587BA" d="M316.56,630.02c0,0-17.43-2-19.12,37.9c0,0,11.05,2.3,18.9-10.33S320.94,637.9,316.56,630.02z"/>
<path fill="#2587BA" d="M306.4,598.2c0,0,9.8-27.17,45.37-7.85c0,0-8.12,24.93-41.73,17.09L306.4,598.2z"/>
<path fill="#2587BA" d="M295.48,557.59c0,0,18.48-27.44,51.25-2c0,0-11.48,25.76-48.45,11.76L295.48,557.59z"/>
<path fill="#2587BA" d="M291.56,518.95c0,0,21.56-25.2,54,0c0,0-20.45,22.12-54,6.44V518.95z"/>
<path fill="#2587BA" d="M288.2,481.43c0,0,21.84-26.33,52.93-1.4c0,0-24.65,23.24-52.93,7.56V481.43z"/>
<path fill="#2587BA" d="M290.16,448.1c0,0,23-33.88,52.09-10.92c0,0-24.65,29.13-52.09,17.36V448.1z"/>
<path fill="#2587BA" d="M295.48,409.18c0,0,24.36-33.6,52.65-7.84c0,0-28.85,29.12-52.65,14V409.18z"/>
<path fill="#2587BA" d="M303.61,374.39c0,0,28.83-31.57,54-19c0,0-30.06,33.53-55.26,27.37L303.61,374.39z"/>
<path fill="#2587BA" d="M313.68,341.42c0,0,33.33-38.65,52.65-25.77c0,0-24.52,30-55,33.05L313.68,341.42z"/>
<path fill="#2587BA" d="M328.23,303.16c0,0,29.14-31.58,50.42-23.74c0,0-24.92,32.77-54.33,33.61L328.23,303.16z"/>
<path fill="#2587BA" d="M341.41,267.38c0,0,32.2-30.24,46.2-24.92c0,0-23.24,33.6-47.6,31.64L341.41,267.38z"/>
<path fill="#38D39F" d="M354.29,234.34c0,0,27.72-36.12,42.84-33.32c0,0-16.8,32.2-42.84,37V234.34z"/>
<path fill="#38D39F" d="M368.26,189.82c0,0,24.51-27.7,37.74-27.63c0,0-19.34,37-38.74,36.66L368.26,189.82z"/>
<path fill="#2587BA" d="M376.55,160.13l23.66-57.68c0,0,1.19,52.14-26.68,68.38L376.55,160.13z"/>
<path fill="#2587BA" d="M386.15,96.52c0,0,3.92-48.16,1.4-52.08c0,0,16.93,40-1.56,73.36L386.15,96.52z"/>
<path fill="#2587BA" d="M305.49,597.55c0,0-24.55-15.21-40.43,22c0,0,21.84,14.5,43.31-12.51L305.49,597.55z"/>
<path fill="#2587BA" d="M294.7,556.04c0,0-30.1-13.73-44.71,25.12c0,0,23.26,16,47.45-15.3L294.7,556.04z"/>
<path fill="#2587BA" d="M290.16,521.26c0,0-21.56-25.2-54,0c0,0,20.44,22.12,54,6.44V521.26z"/>
<path fill="#2587BA" d="M287.47,481.43c0,0-21.85-26.33-52.93-1.4c0,0,24.64,23.24,52.93,7.56V481.43z"/>
<path fill="#2587BA" d="M290.16,449.06c0,0-15.32-37.95-48.62-21.63c0,0,18,33.66,47.27,27.93L290.16,449.06z"/>
<path fill="#2587BA" d="M297.41,408.99c0,0-15.22-38.61-49-20.71c0,0,20.68,35.39,47.5,26.68L297.41,408.99z"/>
<path fill="#2587BA" d="M306.85,374.59c0,0-6-42.34-33.95-46.13c0,0,5.93,44.64,30.22,53.75L306.85,374.59z"/>
<path fill="#2587BA" d="M314.4,341.49c0,0-2.35-51-25.5-52.77c0,0,0.78,38.7,22.89,60L314.4,341.49z"/>
<path fill="#2587BA" d="M330.64,301.7c0,0-6.91-42.4-29-47.59c0,0,2.74,41.07,26.81,58L330.64,301.7z"/>
<path fill="#2587BA" d="M344.03,267.69c0,0-0.24-44.18-13.74-50.67c0,0-8.37,40,9.83,56.31L344.03,267.69z"/>
<path fill="#2587BA" d="M355.32,233.82c0,0-1.9-45.5-15.87-51.91c0,0-4.79,36,13.77,54.88L355.32,233.82z"/>
<path fill="#2587BA" d="M370.22,193.42c0,0-0.09-37-10.07-45.68c0,0-9.92,40.54,4.86,53.12L370.22,193.42z"/>
<path fill="#2587BA" d="M375.37,158.31l-9.7-61.59c0,0-13.2,50.47,10.16,72.7L375.37,158.31z"/>
<path fill="#2587BA" d="M377.27,97.1c0,0-24.93-41.39-24.41-46c0,0,2.64,43.4,34,65L377.27,97.1z"/>
<path fill="#2587BA" d="M380.19,84.88c0,0-23.52-58.81-34.16-63.57c0,0,33.6,17.08,36.12,61.89L380.19,84.88z"/>
<path fill="#444053" d="M367.13,199.17l-1.61-0.49c19.85-64.73,24.81-106,13.95-116.34l1.16-1.22
	C392.13,92.03,387.47,132.82,367.13,199.17z"/>
<path fill="#444053" d="M312.47,350.69l-2.37-0.84c2.1-5.93,4.37-11.95,6.75-17.89c20.72-51.64,38.36-99.67,49.67-136.55l2.07-1
	c-11.33,36.95-28.65,86.83-49.4,138.53C316.82,338.82,314.56,344.82,312.47,350.69z"/>
<path fill="#444053" d="M362.56,707.02c-0.32-0.36-32.5-36.58-54.92-98.44c-13.147-36.204-20.471-74.263-21.7-112.76
	c-1.54-48.13,8.56-101.87,25.86-150.68l1.88,2.2c-38.83,109.56-23.4,203.45-2.94,260c22.2,61.29,54,97.13,54.32,97.48L362.56,707.02
	z"/>
<path fill="#3A3768" d="M645.09,289.82h4.28c1.265,0,2.29,1.025,2.29,2.29v68.44c0,1.265-1.025,2.29-2.29,2.29h-4.28
	c-1.265,0-2.29-1.025-2.29-2.29v-68.44C642.8,290.845,643.825,289.82,645.09,289.82z"/>
<path fill="#3A3768" d="M350.66,232.61h0.39c1.265,0,2.29,1.025,2.29,2.29v19.46c0,1.265-1.025,2.29-2.29,2.29h-0.39
	c-1.265,0-2.29-1.025-2.29-2.29V234.9C348.37,233.635,349.395,232.61,350.66,232.61z"/>
<path fill="#3A3768" d="M350.48,276.63h1.02c1.265,0,2.29,1.025,2.29,2.29v37.26c0,1.265-1.025,2.29-2.29,2.29h-1.02
	c-1.265,0-2.29-1.025-2.29-2.29v-37.26C348.19,277.655,349.215,276.63,350.48,276.63z"/>
<path fill="#3A3768" d="M350.57,333.11h0.75c1.265,0,2.29,1.025,2.29,2.29v37.62c0,1.265-1.025,2.29-2.29,2.29h-0.75
	c-1.265,0-2.29-1.025-2.29-2.29V335.4C348.28,334.135,349.305,333.11,350.57,333.11z"/>
<path fill="#3A3768" d="M390.17,153.17h218.42c21.534,0,38.99,17.456,38.99,38.99v524.41c0,21.534-17.456,38.99-38.99,38.99H390.17
	c-21.534,0-38.99-17.456-38.99-38.99V192.16C351.18,170.626,368.636,153.17,390.17,153.17z"/>
<path fill="#2587BA" d="M605.77,168.82h-34v4.09c0,10.703-8.677,19.38-19.38,19.38c-0.003,0-0.007,0-0.01,0H444.25
	c-10.703,0.006-19.384-8.667-19.39-19.37c0-0.003,0-0.007,0-0.01v-4.09h-31.83c-13.001,0-23.54,10.539-23.54,23.54v0v523.97
	c0,13.001,10.539,23.54,23.54,23.54h212.74c13.001,0,23.54-10.539,23.54-23.54V192.4c0.022-13.001-10.499-23.558-23.5-23.58
	C605.797,168.82,605.783,168.82,605.77,168.82z"/>
<path fill="#E6E8EC" d="M474.66,171.16h33.65c2.137,0,3.87,1.733,3.87,3.87v0.66c0,2.137-1.733,3.87-3.87,3.87h-33.65
	c-2.137,0-3.87-1.733-3.87-3.87v-0.66C470.79,172.893,472.523,171.16,474.66,171.16z"/>
<circle fill="#E6E8EC" cx="523.21" cy="175.36" r="4.77"/>
<path fill="#2587BA" d="M750.2,126.75c0,0-84.2-5.08-74.28,53.92c0,0-2,10.43,7.48,15.16c0,0,0.15-4.37,8.64-2.88
	c3.023,0.501,6.093,0.649,9.15,0.44c4.124-0.271,8.047-1.875,11.18-4.57l0,0c0,0,23.67-9.78,32.87-48.46c0,0,6.81-8.44,6.54-10.61
	l-14.21,6.07c0,0,4.86,10.25,1,18.77c0,0-0.46-18.4-3.19-18c-0.55,0.08-7.38,3.55-7.38,3.55s8.35,17.85,2.05,30.83
	c0,0,2.39-22-4.66-29.54l-10,5.84c0,0,9.76,18.44,3.14,33.49c0,0,1.7-23.08-5.25-32.07l-9.06,7.07c0,0,9.17,18.17,3.58,30.65
	c0,0-0.73-26.86-5.54-28.89c0,0-7.93,7-9.14,9.86c0,0,6.28,13.2,2.38,20.16c0,0-2.39-17.9-4.35-18c0,0-7.9,11.86-8.72,20
	c0,0,0.34-12.09,6.81-21.12c0,0-7.64,1.31-12.1,6.26c0,0,1.23-8.38,14.05-9.12c0,0,6.53-9,8.27-9.54c0,0-12.74-1.07-20.47,2.36
	c0,0,6.8-7.91,22.81-4.31l8.95-7.31c0,0-16.78-2.29-23.9,0.24c0,0,8.19-7,26.31-1.9l9.74-5.82c0,0-14.31-3.08-22.83-2
	c0,0,9-4.85,25.69,0.41l7-3.13c0,0-10.48-2.06-13.55-2.39c-3.07-0.33-3.23-1.17-3.23-1.17c6.64-1.107,13.456-0.349,19.69,2.19
	C735.67,133.19,750.45,127.68,750.2,126.75z"/>
<path fill="#2587BA" d="M663.83,100.51c0,0-38-2.29-33.56,24.37c0,0-0.89,4.71,3.38,6.85c0,0,0.07-2,3.91-1.31
	c1.364,0.23,2.75,0.297,4.13,0.2c1.865-0.123,3.639-0.854,5.05-2.08l0,0c0,0,10.7-4.42,14.86-21.9c0,0,3.07-3.81,2.95-4.79
	l-6.42,2.74c0,0,2.19,4.63,0.47,8.48c0,0-0.21-8.31-1.44-8.12c-0.25,0-3.34,1.61-3.34,1.61s3.78,8.07,0.93,13.93
	c0,0,1.08-9.94-2.11-13.35l-4.52,2.68c0,0,4.41,8.33,1.42,15.13c0,0,0.77-10.43-2.37-14.49l-4.09,3.2c0,0,4.14,8.21,1.62,13.85
	c0,0-0.34-12.14-2.51-13.06c0,0-3.58,3.16-4.13,4.46c0,0,2.84,6,1.08,9.11c0,0-1.08-8.09-2-8.13c0,0-3.57,5.36-3.94,9
	c0.179-3.394,1.24-6.682,3.08-9.54c-2.06,0.39-3.961,1.374-5.47,2.83c0,0,0.56-3.79,6.35-4.12c0,0,3-4.07,3.74-4.32
	c0,0-5.76-0.48-9.25,1.07c0,0,3.07-3.57,10.3-1.95l4-3.3c0,0-7.59-1-10.8,0.11c0,0,3.7-3.16,11.89-0.86l4.4-2.63
	c0,0-6.47-1.39-10.32-0.89c0,0,4.07-2.19,11.61,0.18l3.15-1.41c0,0-4.74-0.93-6.13-1.08s-1.46-0.53-1.46-0.53
	c3.002-0.499,6.084-0.153,8.9,1C657.19,103.45,663.95,100.93,663.83,100.51z"/>
<rect x="395.91" y="226.18" opacity="0.1" enable-background="new    " width="206.95" height="439.24"/>
<linearGradient id="SVGID_1_" gradientUnits="userSpaceOnUse" x1="407.1981" y1="173.6588" x2="614.0695" y2="173.6588" gradientTransform="matrix(1 0 0 -1 -11.23 784.46)">
	<stop  offset="0" style="stop-color:#808080;stop-opacity:0.25"/>
	<stop  offset="0.54" style="stop-color:#808080;stop-opacity:0.12"/>
	<stop  offset="1" style="stop-color:#808080;stop-opacity:0.1"/>
</linearGradient>
<path fill="url(#SVGID_1_)" d="M596.52,788.04c0,0-4.88-11.36-7.06-16.6c-1.23-3-3.31-3.5-4.9-3.43l0.09-1l0.39-4.73l0.08-1
	c3.77-0.79,7-1.41,7-1.41l-2.35-121.32c0,0-1-1.28-3.42-9c-1.2-3.85-7-8.58-12.42-12.35c-0.85-0.59-1.68-1.15-2.5-1.69
	c1.974-1.653,4.047-3.183,6.21-4.58c3.08-1.79,4.1-12,4.1-12l-0.51,1c0.51-1,0-27.07,0-27.07l-1.8-27.06c0,0-1.28-32.17-11.28-40.6
	s-22.63-11.38-22.63-11.38l-7-1.8l0,0l-12.9-3.31c-0.36-0.59-0.71-1.21-1-1.86c-0.13-0.25-0.25-0.51-0.37-0.77
	c7.997-5.662,12.751-14.851,12.75-24.65c0.002-1.621-0.128-3.24-0.39-4.84c0-0.3-0.11-0.61-0.17-0.91c1.06-0.726,2.063-1.531,3-2.41
	c1.528-1.217,2.776-2.748,3.66-4.49l0,0c0.139-0.341,0.252-0.692,0.34-1.05c0-0.1,0-0.2,0.06-0.31s0.09-0.53,0.12-0.8
	c0-0.1,0-0.2,0-0.3c0-0.29,0-0.59,0-0.88c0-0.07,0-0.14,0-0.22c0-0.33-0.05-0.66-0.1-1c0.005-0.02,0.005-0.04,0-0.06l0,0
	c-0.183-1.161-0.485-2.3-0.9-3.4c-1-2.58-2.3-5-2.77-7.75c-0.58-3.25,0.09-6.8-1.46-9.72c-1.303-2.235-3.536-3.772-6.09-4.19
	c-2.538-0.392-5.135-0.095-7.52,0.86c-1.166,0.554-2.423,0.893-3.71,1c-0.936-0.054-1.854-0.278-2.71-0.66
	c-2.969-1.165-5.789-2.679-8.4-4.51c-1.879-1.483-3.887-2.794-6-3.92c-2.149-1.122-4.687-1.224-6.92-0.28
	c-3.7,1.88-4.4,7.12-7.84,9.43c-2.37,1.6-5.46,1.44-8.32,1.54s-6.1,0.81-7.51,3.29c-1,1.72-0.76,3.77-0.57,5.78l0.06,0.68
	c0,0.24,0,0.49,0.06,0.73c0.158,2.571-0.227,5.147-1.13,7.56c-1.38,3.66-4,7.27-3.91,11l0,0c0.008,0.594,0.085,1.184,0.23,1.76
	c0.078,0.288,0.172,0.572,0.28,0.85l0,0c0.551,1.236,1.168,2.441,1.85,3.61l0.09,0.16c0.07,0.14,0.14,0.28,0.2,0.42
	s0.18,0.38,0.25,0.57s0.08,0.19,0.11,0.28s0.13,0.37,0.18,0.56c0.165,0.565,0.236,1.152,0.21,1.74
	c-0.117,0.758-0.181,1.523-0.19,2.29c0.007,0.791,0.565,1.47,1.34,1.63c0.413-0.01,0.814-0.135,1.16-0.36
	c0.897-0.511,1.75-1.097,2.55-1.75c0,0.32,0,0.64,0.06,1c0.696,7.157,3.919,13.833,9.09,18.83c0,0.31,0,0.63-0.07,1
	s-0.05,0.72-0.07,1.09l0,0l-11.2,3.52c0,0,0.06,0.2,0.18,0.54l-1.18,0.47l0,0c-5.81,2.35-12.28,5.27-15.9,7.92
	c-1.6,1.16-3.06,2.11-4.37,2.9c-4.756,2.911-8.403,7.328-10.36,12.55l-0.15,0.38c-1,2.29-5.9,17.87-5.9,17.87s-3.59,8.68-4.11,14.3
	c0,0-5.9,18.63-4.36,30.89c0,0-4.62,17.62-2.82,20.42c0,0-1.84,7.58,6.24,15.21c-0.59,0.36-1.23,0.75-1.9,1.18
	c-6.26,3.94-15.29,10.33-16.83,15.26c-2.39,7.67-3.42,9-3.42,9l-2.42,121.13c0,0,3.23,0.62,7,1.4l0.08,1l0.39,4.72l0.09,1
	c-1.59-0.07-3.67,0.48-4.9,3.44c-2.19,5.23-7,16.58-7,16.58s-10.77,10-4.24,19.28c0.288,0.424,0.623,0.813,1,1.16
	c4.69,4.26,14.69,1.53,21.8-1.25c3.613-1.542,6.728-4.055,9-7.26c0.579-0.759,1.449-1.241,2.4-1.33
	c1.63-0.263,3.168-0.934,4.47-1.95c1.591-1.162,2.511-3.031,2.46-5c-0.005-0.05-0.005-0.1,0-0.15l-0.63-14.23
	c0,0-0.77-9.94-3.22-9.3l-0.63,0.15l-0.17-1l0,0l-0.33-1.93l-0.17-1h1.36c0,0,0.34-11.24,4.45-20.08s6.81-80.25,6.81-80.25
	s50.87,0.83,52.57-3.94l0,0c1,0,2.09,0,3.13-0.07c1.71,4.77,49.72,5,49.72,5s2.73,71.49,6.83,80.34
	c0.865,1.896,1.584,3.855,2.15,5.86l0,0c1.291,4.637,2.065,9.403,2.31,14.21h1.36l-0.18,1l-0.33,1.92l-0.17,1l-0.65-0.15
	c-2.43-0.63-3.2,9.31-3.2,9.31l-0.65,14.32c-0.103,1.962,0.792,3.843,2.38,5c1.324,1.039,2.889,1.727,4.55,2
	c0.952,0.077,1.826,0.557,2.4,1.32c2.274,3.203,5.388,5.715,9,7.26c7.68,3,18.72,5.93,22.82,0.1
	C607.29,798,596.52,788.04,596.52,788.04z M467.22,609.7L467.22,609.7h0.12H467.22z M547.57,568.82c0,0,1.29,4.85,3.59,7.4
	s1.16,18.39,1.16,18.39c-0.905,0.057-1.802,0.201-2.68,0.43C547.87,584.51,546.24,572.82,547.57,568.82z"/>
<polygon fill="#8E6F7F" points="436.96,768.43 416.85,770.43 416.29,763.7 415.9,759.07 415.35,752.3 434.35,753.3 435.86,761.99 
	436.18,763.88 436.19,763.88 "/>
<polygon fill="#8E6F7F" points="583.41,753.31 582.86,760.07 582.48,764.7 581.91,771.43 561.79,769.43 562.59,764.88 562.9,763 
	564.41,754.31 "/>
<path fill="#5F5570" d="M562.1,655.92l-59.8,2.81c-2.72,0.133-5.44,0.133-8.16,0l-57.13-2.8v-45.26H562.1V655.92z"/>
<path opacity="0.1" enable-background="new    " d="M562.1,655.92l-59.8,2.81c-2.72,0.133-5.44,0.133-8.16,0l-57.13-2.8v-45.26
	H562.1V655.92z"/>
<path fill="#EAEAF2" d="M485.52,488.73c0,0-19.92,6.69-27.42,12.19c-1.56,1.14-3,2.08-4.26,2.85
	c-4.632,2.856-8.177,7.178-10.07,12.28c-0.05,0.14-0.1,0.26-0.15,0.37c-1,2.25-5.75,17.5-5.75,17.5s-3.5,8.5-4,14
	s28.5,20.25,28.5,20.25s-14,30.5-7.75,38.25s97.5,11.5,95.5,0s-5.5-30.5-3.75-35.75l31-22.5c0,0-1.25-31.5-11-39.75
	s-22-11.25-22-11.25l-19.41-5c0,0-6.84,17-14.34,19.25C503.12,513.67,486.69,503.28,485.52,488.73z"/>
<path opacity="0.1" enable-background="new    " d="M513.5,517.36c0,0-8.46,7.06-12.9,0c0,0-4,11.94,0,15.94l-0.15,0.81l-0.71,3.56
	l-9.26,77l7.62,13.15l13.87-17.4l-1.12-72l-0.5-4.13l-0.12-1h2.37C512.6,533.29,518.89,522.42,513.5,517.36z"/>
<path opacity="0.1" enable-background="new    " d="M515.5,517.36c0,0-8.46,7.06-12.9,0c0,0-4,11.94,0,15.94l-0.15,0.81l-0.71,3.56
	l-9.26,77l7.62,13.15l13.87-17.4l-1.12-72l-0.5-4.13l-0.12-1h2.37C514.6,533.29,520.89,522.42,515.5,517.36z"/>
<polygon fill="#BC8487" points="512.97,609.43 499.1,626.8 491.46,613.72 500.73,536.68 501.44,533.12 501.6,532.3 502.85,529.06 
	511.23,532.3 511.35,533.3 511.85,537.43 "/>
<path opacity="0.1" enable-background="new    " d="M435.86,761.98c-4.315-0.028-8.618-0.466-12.85-1.31
	c-2.09-0.52-4.71-1.1-7.1-1.61l-0.56-6.77l19,1L435.86,761.98z"/>
<path fill="#5F5570" d="M499.25,658.82c-1.66,4.67-51.24,3.85-51.24,3.85s-2.66,70-6.66,78.67S437.01,761,437.01,761
	s-8.66,0-14-1.33s-14-3-14-3l2.34-118.75c0,0,1-1.25,3.33-8.76c1.5-4.83,10.3-11.09,16.39-15c3.4-2.14,5.94-3.54,5.94-3.54
	l29.58,1.2l18.26,0.74C484.85,612.56,500.92,654.15,499.25,658.82z"/>
<path opacity="0.1" enable-background="new    " d="M436.97,768.42l-20.12,2l-0.57-6.73c0.754,0.021,1.497,0.184,2.19,0.48
	c3.67,2.64,14.16,0.54,17.71-0.3l0,0L436.97,768.42z"/>
<path fill="#BC8487" d="M440.77,787.87c0.048,1.927-0.853,3.755-2.41,4.89c-1.266,0.993-2.762,1.65-4.35,1.91
	c-0.927,0.08-1.775,0.553-2.33,1.3c-2.223,3.135-5.268,5.595-8.8,7.11c-6.93,2.72-16.68,5.39-21.25,1.22
	c-0.377-0.335-0.713-0.715-1-1.13c-6.37-9.12,4.13-18.88,4.13-18.88s4.74-11.12,6.87-16.24c0.904-2.609,3.752-3.992,6.361-3.088
	c0.173,0.06,0.343,0.13,0.509,0.208c4,2.88,16.13,0.12,18.5-0.49s3.13,9.11,3.13,9.11l0.64,13.93
	C440.765,787.77,440.765,787.82,440.77,787.87z"/>
<path opacity="0.1" enable-background="new    " d="M583.42,753.3l-0.56,6.76c-2.39,0.51-5,1.09-7.11,1.61
	c-4.229,0.845-8.528,1.287-12.84,1.32l1.51-8.69L583.42,753.3z"/>
<path fill="#5F5570" d="M589.77,757.67c0,0-8.66,1.67-14,3s-14,1.33-14,1.33s-0.33-11-4.33-19.66s-6.67-78.67-6.67-78.67
	s-46.78-0.27-48.45-4.94s20.39-45,20.39-45l13.45-0.7l25.61-1.36c0,0,5,2.72,10.24,6.39s10.93,8.33,12.1,12.1
	c2.33,7.51,3.33,8.76,3.33,8.76L589.77,757.67z"/>
<path opacity="0.1" enable-background="new    " d="M582.48,764.69l-0.56,6.73l-20.13-2l0.8-4.55c3.55,0.85,14,2.94,17.7,0.3
	C580.983,764.874,581.726,764.711,582.48,764.69z"/>
<path fill="#BC8487" d="M580.29,766.17c2.492-1.19,5.477-0.134,6.666,2.358c0.081,0.17,0.152,0.344,0.214,0.522
	c2.12,5.12,6.87,16.25,6.87,16.25s10.5,9.75,4.13,18.87c-4,5.72-14.76,2.85-22.24-0.09c-3.536-1.509-6.582-3.97-8.8-7.11
	c-0.558-0.748-1.41-1.222-2.34-1.3c-1.625-0.283-3.152-0.971-4.44-2c-1.538-1.138-2.404-2.969-2.31-4.88l0.63-14
	c0,0,0.75-9.73,3.12-9.12S576.29,769.05,580.29,766.17z"/>
<path fill="#FFC4D0" d="M528.6,497.17l-20.19,21.4l-0.56,0.6l-0.73-0.43c-4.22-2.5-25.33-15.24-23.52-19.07
	c1-2.18,1.59-6.72,1.9-10.63c0-0.47,0.06-0.93,0.1-1.38c0.2-3.09,0.25-5.49,0.25-5.49s38-6.5,36.5,0c-0.61,2.63,0.3,5.59,1.59,8.18
	c0.38,0.75,0.8,1.46,1.21,2.13C526.16,494.142,527.314,495.711,528.6,497.17z"/>
<path opacity="0.1" enable-background="new    " d="M523.94,490.35c-11.71,8.629-27.95,7.49-38.34-2.69
	c0.2-3.09,0.25-5.49,0.25-5.49s38-6.5,36.5,0C521.77,484.82,522.65,487.76,523.94,490.35z"/>
<path fill="#FFC4D0" d="M536.01,465.46c0.234,16.385-12.86,29.856-29.244,30.09c-15.618,0.223-28.734-11.701-29.996-27.27
	c-0.08-0.933-0.12-1.873-0.12-2.82c-0.301-16.384,12.737-29.909,29.121-30.209c16.384-0.301,29.909,12.737,30.209,29.121
	c0.007,0.363,0.007,0.726,0,1.088L536.01,465.46z"/>
<path opacity="0.1" enable-background="new    " d="M535.64,460.72c-1.562,1.272-3.59,1.821-5.58,1.51c-4.58-1-6.15-8-10.83-8.48
	s-7.79,6-12.53,5.87c-2-0.05-3.8-1.36-5.64-2.27c-3.22-1.59-8.52-2.56-12-1.36c-5.23,1.79-7,6.63-10.34,10.48
	c-0.571,0.656-1.196,1.261-1.87,1.81c-0.08-0.933-0.12-1.873-0.12-2.82c-0.149-16.386,13.014-29.789,29.4-29.938
	c14.761-0.134,27.376,10.604,29.6,25.198L535.64,460.72z"/>
<path fill="#8E6F7F" d="M501.06,456.36c1.84,0.9,3.6,2.22,5.64,2.27c4.73,0.12,7.82-6.39,12.52-5.88s6.25,7.45,10.85,8.48
	c3.09,0.7,6-1.61,8.31-3.76c1.493-1.189,2.711-2.686,3.57-4.39c1-2.48,0.48-5.34-0.45-7.86s-2.24-4.94-2.7-7.59
	c-0.56-3.18,0.09-6.66-1.42-9.52c-1.265-2.188-3.445-3.693-5.94-4.1c-2.474-0.384-5.005-0.097-7.33,0.83
	c-1.133,0.55-2.356,0.889-3.61,1c-0.915-0.056-1.813-0.276-2.65-0.65c-2.892-1.14-5.638-2.62-8.18-4.41
	c-1.823-1.455-3.774-2.74-5.83-3.84c-2.092-1.098-4.567-1.198-6.74-0.27c-3.6,1.84-4.29,7-7.64,9.23c-2.31,1.56-5.32,1.4-8.1,1.51
	s-6,0.78-7.32,3.21c-1.18,2.09-0.59,4.66-0.44,7.05c0.149,2.517-0.229,5.038-1.11,7.4c-1.55,4.14-4.7,8.22-3.58,12.5
	c0.73,2.81,3.25,5.14,3.1,8c-0.118,0.738-0.181,1.483-0.19,2.23c0.007,0.775,0.552,1.44,1.31,1.6c0.401-0.005,0.791-0.13,1.12-0.36
	c1.663-0.93,3.154-2.137,4.41-3.57c3.38-3.86,5.13-8.69,10.36-10.48C492.55,453.82,497.84,454.76,501.06,456.36z"/>
<path fill="#FFC4D0" d="M535.47,630.92l-5.4,1.47l-12.47,3.43c-2.886,2.15-6.134,3.766-9.59,4.77c-7.63,1.93-12.56-2.27-16.66-8.77
	c-1.65-2.6-0.82-4.68,1.34-6.31c5.2-3.93,18.06-5.21,22-4.69c2.588,0.211,5.188-0.194,7.59-1.18c1.705-0.62,3.348-1.397,4.91-2.32
	L535.47,630.92z"/>
<path opacity="0.1" enable-background="new    " d="M535.47,630.92l-5.4,1.47c-1.55-4.67-4.1-10.53-7.75-12.78
	c1.705-0.62,3.348-1.397,4.91-2.32L535.47,630.92z"/>
<path opacity="0.1" enable-background="new    " d="M571.99,618.06c-2.24,1.81-4.14,3.46-4.14,3.46s-26,8.15-31,18.4
	c0,0-4-20-12.5-20.25c0,0,9.15-3.59,11.79-6.66l25.63-1.34C561.77,611.67,566.77,614.39,571.99,618.06z"/>
<path fill="#EAEAF2" d="M571.6,539.67l5.75,8.5l1.75,26.5c0,0,0.5,25.5,0,26.5l0.5-1c0,0-1,10-4,11.75s-9.75,7.6-9.75,7.6
	s-26,8.15-31,18.4c0,0-4-20-12.5-20.25c0,0,12.75-5,12.5-8.25c0,0,9.75-8.75,10.5-11s5.62-2.5,5.62-2.5s1.13-15.5-1.12-18
	s-3.5-7.25-3.5-7.25L571.6,539.67z"/>
<path opacity="0.1" enable-background="new    " d="M508.01,640.56c-7.63,1.93-12.56-2.27-16.66-8.77c-1.65-2.6-0.82-4.68,1.34-6.31
	l0.78,0.31C493.47,625.79,507.22,631.75,508.01,640.56z"/>
<path fill="#FFC4D0" d="M504.85,648.55c-9,12.5-25.75-4.88-27-8.38c-0.45-1.27-2.16-2.4-4.13-3.31
	c-2.499-1.092-5.094-1.952-7.75-2.57l14.88-12.12l2.85,1.14l8.77,3.51C492.47,626.82,513.85,636.05,504.85,648.55z"/>
<path opacity="0.1" enable-background="new    " d="M483.7,623.31c-8.2,3.9-9.95,9.51-10,13.55c-2.499-1.092-5.094-1.952-7.75-2.57
	l14.88-12.12L483.7,623.31z"/>
<path opacity="0.1" enable-background="new    " d="M470.6,644.92c0,0-24-19-35.5-27.25c-1.439-1.025-2.778-2.184-4-3.46
	c3.4-2.14,5.94-3.54,5.94-3.54l29.58,1.2c0.79,1.37,1.26,2.3,1.26,2.3l16,10.5C464.6,630.92,470.6,644.92,470.6,644.92z"/>
<path fill="#EAEAF2" d="M438.6,545.17l-4.75,2.75c0,0-5.75,18.25-4.25,30.25c0,0-4.5,17.25-2.75,20c0,0-2.25,9.25,9.25,17.5
	s35.5,27.25,35.5,27.25s-6-14,13.25-20.25l-16-10.5c0,0-5.37-10.66-10.5-13c0,0-4-4-1.5-6.75s4.5-5.75,4.5-8.5s1-15.75,1-15.75l3-14
	L438.6,545.17z"/>
<path opacity="0.1" enable-background="new    " d="M511.35,533.29h-9.75c-0.059-0.055-0.112-0.115-0.16-0.18l0.16-0.82l1.25-3.24
	l8.38,3.24L511.35,533.29z"/>
<path fill="#BC8487" d="M514.5,516.36c0,0-8.46,7.06-12.9,0c0,0-4,11.94,0,15.94h12C513.6,532.3,519.89,521.42,514.5,516.36z"/>
<path opacity="0.1" enable-background="new    " d="M525.94,493.17l12.6,3.25c0,0-11.94,31-14.57,31l-15.12-7.25L525.94,493.17z"/>
<path opacity="0.1" enable-background="new    " d="M528.6,497.17l-20.19,21.4l-0.56,0.6l-0.73-0.43l17.65-26.92l0.43,0.71
	C526.196,494.173,527.334,495.725,528.6,497.17z"/>
<path fill="#EAEAF2" d="M524.94,492.17l12.6,3.25c0,0-11.94,31-14.57,31l-15.12-7.25L524.94,492.17z"/>
<path opacity="0.1" enable-background="new    " d="M484.52,489.73l-10.92,3.44c0,0,10.75,32.5,13.75,34.25l19.5-7.25L484.52,489.73
	z"/>
<path opacity="0.1" enable-background="new    " d="M508.41,518.57l-0.56,0.6c0,0-26.25-15.25-24.25-19.5
	c1-2.18,1.59-6.72,1.9-10.63v-0.61L508.41,518.57z"/>
<path fill="#EAEAF2" d="M485.52,488.73l-10.92,3.44c0,0,10.75,32.5,13.75,34.25l19.5-7.25L485.52,488.73z"/>
<path opacity="0.1" enable-background="new    " d="M459.51,541.82c0,0,6.58,1.17,6.46,8s2.71-8.83,2.71-8.83L459.51,541.82z"/>
<path opacity="0.1" enable-background="new    " d="M461.01,562.82c0,0-1.83,10.33,0,19.67s1.67,12.5,3.09,13
	S461.01,562.82,461.01,562.82z"/>
<path opacity="0.1" enable-background="new    " d="M545.01,561.82c-1.983,0.252-3.387,2.063-3.136,4.047
	c0.027,0.211,0.072,0.42,0.136,0.623C542.85,570.67,545.01,561.82,545.01,561.82z"/>
<path opacity="0.1" enable-background="new    " d="M430.68,596.82c0,0,21.43-1.83,25,2S430.68,596.82,430.68,596.82z"/>
<path opacity="0.1" enable-background="new    " d="M555.01,598.27c0,0,15.67-1.93,19.34,0.74"/>
<path opacity="0.1" enable-background="new    " d="M561.35,600.82c0,0,9.33,0.33,11.5,1.5"/>
<path opacity="0.1" enable-background="new    " d="M563.18,604.17c0,0,8.5-0.33,9.67,1"/>
<path opacity="0.1" enable-background="new    " d="M443.31,651.17c0,0,7.28,3.79,6.54,7.66S443.31,651.17,443.31,651.17z"/>
<path opacity="0.1" enable-background="new    " d="M437.01,653.01c0,0,11.11,14.41,9.6,19.16S437.01,653.01,437.01,653.01z"/>
<path opacity="0.1" enable-background="new    " d="M556.1,655.4c0,0-5.5,4.53-5.35,8.27"/>
<path opacity="0.1" enable-background="new    " d="M429.1,744.67c0,0,0,4.25,7.87,10.5"/>
<path opacity="0.1" enable-background="new    " d="M568.01,734.67c0,0-0.84,8.84-8.5,13.42"/>
<g opacity="0.1">
	<path d="M473.6,434.63c0-0.69-0.12-1.4-0.18-2.1c-0.127,1.527-0.081,3.064,0.14,4.58C473.628,436.285,473.642,435.457,473.6,434.63
		z"/>
	<path d="M472.01,462.57c0.15-2.9-2.37-5.23-3.1-8c-0.037-0.134-0.064-0.271-0.08-0.41c-0.228,1.128-0.201,2.294,0.08,3.41
		c0.59,2.29,2.37,4.25,2.93,6.47C471.89,463.52,471.99,463.05,472.01,462.57z"/>
	<path d="M541.95,450.08c-0.862,1.702-2.08,3.199-3.57,4.39c-2.33,2.15-5.22,4.46-8.31,3.76c-4.59-1-6.17-8-10.85-8.48
		s-7.79,6-12.52,5.87c-2-0.05-3.8-1.36-5.64-2.27c-3.22-1.59-8.51-2.56-12-1.36c-5.23,1.79-7,6.63-10.36,10.48
		c-1.254,1.433-2.742,2.644-4.4,3.58c-0.336,0.222-0.728,0.343-1.13,0.35c-0.511-0.069-0.943-0.415-1.12-0.9v0.07
		c-0.118,0.741-0.181,1.49-0.19,2.24c0.012,0.771,0.555,1.431,1.31,1.59c0.402-0.007,0.794-0.128,1.13-0.35
		c1.658-0.936,3.146-2.147,4.4-3.58c3.38-3.85,5.13-8.69,10.36-10.48c3.53-1.2,8.82-0.23,12,1.36c1.84,0.91,3.6,2.22,5.64,2.27
		c4.73,0.12,7.82-6.39,12.52-5.87s6.26,7.44,10.85,8.48c3.09,0.7,6-1.61,8.31-3.76c1.49-1.191,2.708-2.688,3.57-4.39
		c0.557-1.445,0.706-3.016,0.43-4.54C542.295,449.068,542.151,449.585,541.95,450.08z"/>
</g>
<path opacity="0.1" enable-background="new    " d="M404.77,784.3c0,0,8.17-2.52,11.56,2.26"/>
<path opacity="0.1" enable-background="new    " d="M594.04,785.3c0,0-13.53-0.79-13,2.87"/>
<ellipse opacity="0.1" fill="#38D39F" enable-background="new    " cx="864.17" cy="773.34" rx="26.93" ry="4.55"/>
<ellipse opacity="0.1" fill="#38D39F" enable-background="new    " cx="91.09" cy="810.68" rx="26.93" ry="4.55"/>
<ellipse opacity="0.1" fill="#38D39F" enable-background="new    " cx="195.26" cy="835.09" rx="26.93" ry="4.55"/>
<ellipse fill="#2587BA" cx="805.22" cy="822.1" rx="40.21" ry="6.8"/>
<path fill="#2587BA" d="M821.85,810.98c1.833-1.498,3.168-3.517,3.83-5.79c0.5-2.29-0.48-5-2.68-5.89
	c-2.46-0.94-5.09,0.77-7.08,2.49s-4.28,3.69-6.89,3.32c2.732-2.471,3.966-6.196,3.25-9.81c-0.117-0.737-0.432-1.428-0.91-2
	c-1.36-1.46-3.84-0.84-5.47,0.32c-5.2,3.65-6.65,10.72-6.68,17.07c-0.53-2.29-0.08-4.68-0.1-7s-0.65-5-2.64-6.23
	c-1.228-0.659-2.607-0.983-4-0.94c-2.34-0.09-4.94,0.15-6.54,1.86c-2,2.12-1.46,5.68,0.26,8s4.35,3.81,6.77,5.42
	c1.936,1.154,3.587,2.73,4.83,4.61c0.15,0.263,0.271,0.541,0.36,0.83h14.61C816.064,815.571,819.119,813.466,821.85,810.98z"/>
<path fill="#2587BA" d="M196.65,723.27c0,0,5.5,7.19-2.53,18s-14.65,20-12,26.77c0,0,12.12-20.15,22-20.43
	S207.5,735.39,196.65,723.27z"/>
<path opacity="0.1" enable-background="new    " d="M196.65,723.27c0.48,0.696,0.857,1.457,1.12,2.26
	c9.62,11.3,14.75,21.85,5.5,22.11c-8.61,0.25-18.94,15.65-21.42,19.54c0.08,0.3,0.18,0.59,0.29,0.89c0,0,12.12-20.15,22-20.43
	S207.5,735.39,196.65,723.27z"/>
<path opacity="0.1" fill="#016899" enable-background="new    " d="M206.86,732.43c0,2.53-0.28,4.58-0.63,4.58s-0.63-2.05-0.63-4.58
	s0.35-1.34,0.7-1.34S206.86,729.9,206.86,732.43z"/>
<path opacity="0.1" fill="#016899" enable-background="new    " d="M210.37,735.45c-2.22,1.21-4.16,1.94-4.32,1.63
	s1.49-1.54,3.71-2.75s1.35-0.33,1.51,0S212.59,734.24,210.37,735.45z"/>
<path fill="#2587BA" d="M167.64,723.27c0,0-5.5,7.19,2.53,18s14.65,20,12,26.77c0,0-12.11-20.15-22-20.43
	S156.77,735.39,167.64,723.27z"/>
<path opacity="0.1" enable-background="new    " d="M167.64,723.27c-0.481,0.696-0.861,1.457-1.13,2.26
	c-9.62,11.3-14.74,21.85-5.5,22.11c8.62,0.25,18.95,15.65,21.43,19.54c-0.082,0.302-0.182,0.6-0.3,0.89c0,0-12.11-20.15-22-20.43
	S156.77,735.39,167.64,723.27z"/>
<path opacity="0.1" fill="#016899" enable-background="new    " d="M157.42,732.43c0,2.53,0.29,4.58,0.64,4.58s0.63-2.05,0.63-4.58
	s-0.35-1.34-0.7-1.34C157.64,731.09,157.42,729.9,157.42,732.43z"/>
<path opacity="0.1" fill="#016899" enable-background="new    " d="M153.92,735.45c2.22,1.21,4.15,1.94,4.32,1.63
	s-1.5-1.54-3.72-2.75s-1.34-0.33-1.51,0C152.84,734.66,151.7,734.24,153.92,735.45z"/>
<path fill="#0D5A7C" d="M159.17,767.13c0,0,15.36-0.48,20-3.77s23.63-7.24,24.77-1.95s23.09,26.29,5.75,26.43s-40.3-2.7-44.92-5.51
	S159.17,767.13,159.17,767.13z"/>
<path opacity="0.2" enable-background="new    " d="M209.99,786c-17.34,0.14-40.3-2.7-44.92-5.51c-3.51-2.15-4.92-9.84-5.39-13.38
	h-0.51c0,0,1,12.38,5.59,15.2s27.58,5.65,44.92,5.51c5,0,6.73-1.82,6.64-4.46C215.62,784.98,213.71,785.97,209.99,786z"/>
</svg>
